<svg width="35.000000" height="37.000000" viewBox="0 0 35 37" fill="none" xmlns="http://www.w3.org/2000/svg" xmlns:xlink="http://www.w3.org/1999/xlink">
	<desc>
			Created with Pixso.
	</desc>
	<defs/>
	<path id="Vector" d="M10.15 35.9C10.48 36.18 10.9 36.33 11.33 36.33L30.83 36.33C31.8 36.33 32.73 35.94 33.42 35.25C34.11 34.57 34.5 33.63 34.5 32.66L34.5 19.44C34.49 18.54 34.16 17.67 33.56 17C32.96 16.33 32.13 15.9 31.23 15.8L18 14.33L18 3.33C18 2.36 17.61 1.42 16.92 0.74C16.23 0.05 15.3 -0.34 14.33 -0.34C13.36 -0.34 12.42 0.05 11.74 0.74C11.05 1.42 10.66 2.36 10.66 3.33L10.66 25.33L5.11 23.11C4.64 22.92 4.15 22.83 3.65 22.85C3.15 22.86 2.65 22.97 2.2 23.18C1.75 23.4 1.34 23.7 1.01 24.07C0.68 24.44 0.42 24.88 0.26 25.35L0.06 25.98C-0.06 26.33 -0.07 26.7 0.03 27.06C0.13 27.41 0.34 27.73 0.62 27.96L10.15 35.9Z" fill="#4E75FF" fill-opacity="1.000000" fill-rule="nonzero"/>
</svg>
